{"title":"Kung Fu Panda.2008.BRrip.Dual Audio(Eng-Hindi).aaaevilacharya","uid":5840340,"size":820678756,"categoryP":"video","categoryS":"movies","magnet":"?xt=urn:btih:434dfe2d4be837a9c5089dec0714f4f7a73e88ac&amp;dn=Kung+Fu+Panda.2008.BRrip.Dual+Audio%28Eng-Hindi%29.aaaevilacharya&amp;tr=udp%3A%2F%2Ftracker.openbittorrent.com%3A80&amp;tr=udp%3A%2F%2Fopen.demonii.com%3A1337&amp;tr=udp%3A%2F%2Ftracker.coppersurfer.tk%3A6969&amp;tr=udp%3A%2F%2Fexodus.desync.com%3A6969","seeders":0,"leechers":1,"uploader":"achaevil","files":6,"time":1284927367,"description":"General\nComplete name : Kung Fu Panda.2008.BRrip.Dual Audio(Eng-Hindi).aaaevilacharya\nFormat : Matroska\nFile size : 782 MiB\nDuration : 1h 31mn\nOverall bit rate : 1 189 Kbps\nWriting application : AVI-Mux GUI 1.17.7\n\nVideo\nID : 1\nFormat : MPEG-4 Visual\nFormat profile : Advanced Simple@L5\nFormat settings, BVOP : Yes\nFormat settings, QPel : No\nFormat settings, GMC : No warppoints\nFormat settings, Matrix : Default (H.263)\nCodec ID : DX50\nCodec ID/Hint : DivX 5\nDuration : 1h 31mn\nBit rate : 909 Kbps\nWidth : 700 pixels\nHeight : 292 pixels\nDisplay aspect ratio : 2.35:1\nFrame rate : 23.976 fps\nColor space : YUV\nChroma subsampling : 4:2:0\nBit depth : 8 bits\nScan type : Progressive\nBits/(Pixel*Frame) : 0.186\nStream size : 598 MiB (76%)\n\n\nAudio #1\nID : 2\nFormat : MPEG Audio\nFormat version : Version 1\nFormat profile : Layer 3\nCodec ID : A_MPEG/L3\nCodec ID/Hint : MP3\nDuration : 1h 31mn\nBit rate mode : Constant\nBit rate : 128 Kbps\nChannel(s) : 2 channels\nSampling rate : 48.0 KHz\nStream size : 84.2 MiB (11%)\nTitle : English\nLanguage : English\n\nAudio #2\nID : 3\nFormat : MPEG Audio\nFormat version : Version 1\nFormat profile : Layer 3\nCodec ID : A_MPEG/L3\nCodec ID/Hint : MP3\nDuration : 1h 31mn\nBit rate mode : Constant\nBit rate : 128 Kbps\nChannel(s) : 2 channels\nSampling rate : 44.1 KHz\nStream size : 84.2 MiB (11%)\nTitle : Hindi\nLanguage : Hindi\n","torrent":{"xt":"urn:btih:434dfe2d4be837a9c5089dec0714f4f7a73e88ac","amp;dn":"Kung+Fu+Panda.2008.BRrip.Dual+Audio%28Eng-Hindi%29.aaaevilacharya","amp;tr":["udp%3A%2F%2Ftracker.openbittorrent.com%3A80","udp%3A%2F%2Fopen.demonii.com%3A1337","udp%3A%2F%2Ftracker.coppersurfer.tk%3A6969","udp%3A%2F%2Fexodus.desync.com%3A6969"],"infoHash":"434dfe2d4be837a9c5089dec0714f4f7a73e88ac","infoHashBuffer":{"type":"Buffer","data":[67,77,254,45,75,232,55,169,197,8,157,236,7,20,244,247,167,62,136,172]},"announce":[],"urlList":[]}}